<svg xmlns="http://www.w3.org/2000/svg" viewBox="0 0 126.5 126.5"><defs><style>.cls-1{fill:#2da2ff;}.cls-2{fill:#fcaa81;}.cls-3{fill:#f9773e;}.cls-4{fill:#e3e3e3;}</style></defs><title>foguete</title><g id="Camada_2" data-name="Camada 2"><g id="Camada_1-2" data-name="Camada 1"><g id="foguete"><path class="cls-1" d="M78.41,124.49c-.68.37-7.27,6.65-10-5.08a26.77,26.77,0,0,0-8-13.18c3.92-.74,7.63-3.63,11.72-6.78a269.8,269.8,0,0,0,22.1-18.67c.7,1.94,2.79,9.84-2.85,23.66C84.86,120.5,79.09,124.12,78.41,124.49Z"/><path class="cls-1" d="M2,48.09c-.37.68-6.65,7.27,5.08,10a26.77,26.77,0,0,1,13.18,8C21,62.14,23.89,58.43,27,54.34a269.8,269.8,0,0,1,18.67-22.1c-1.94-.7-9.84-2.79-23.66,2.85C6,41.64,2.38,47.41,2,48.09Z"/><path class="cls-2" d="M43.88,102,24.52,82.62s-8.4.73-13.15,13.15S8.82,114,10.65,115.85s7.67,4,20.08-.73S43.88,102,43.88,102Z"/><path class="cls-3" d="M35.11,91.39s-6.94-6.94-10.59-8.76c1.83,3.65,8.76,10.59,8.76,10.59s6.94,6.94,10.59,8.76C42.05,98.32,35.11,91.39,35.11,91.39Z"/><path class="cls-4" d="M93.24,76.41A250.53,250.53,0,0,1,69.81,95.77C65.44,99,61.49,102,57.16,102.54a12.86,12.86,0,0,1-8.89-2.39c-8.4-5.48-12.05-9.86-12.05-9.86s-4.38-3.65-9.86-12.05-.91-14.42,4.38-21.55,19.35-25.93,33-35.61,38.71-22.28,60.44-21h0a2.21,2.21,0,0,1,2.18,2.18h0c1.28,21.73-11.32,46.74-21,60.44A98,98,0,0,1,93.24,76.41Z"/></g></g></g></svg>